<svg width="312" height="15" viewBox="0 0 312 15" fill="none" xmlns="http://www.w3.org/2000/svg">
<path d="M0.722656 6.20386L7.72711 8.31811C8.56881 8.57217 9.45606 8.63814 10.3261 8.51137L42.177 3.87013C42.9308 3.76029 43.6987 3.79499 44.4395 3.97239L77.3396 11.8507C78.3075 12.0825 79.3178 12.0699 80.2796 11.814L108.952 4.18522C110.13 3.87176 111.375 3.92461 112.523 4.33671L132.822 11.6282C133.87 12.0045 135.002 12.082 136.091 11.8518L172.935 4.06706C174.057 3.8299 175.224 3.91949 176.297 4.32521L195.313 11.5152C196.497 11.9628 197.792 12.0246 199.014 11.6917L231.868 2.73456C233.131 2.39023 234.472 2.4684 235.686 2.95715L256.08 11.1648C257.717 11.8238 259.562 11.7284 261.122 10.904L275.717 3.19471C276.931 2.55359 278.328 2.34802 279.675 2.61229L310.723 8.70386" stroke="#F9C763" stroke-width="5"/>
</svg>
