<svg width="59" height="59" viewBox="0 0 59 59" fill="none" xmlns="http://www.w3.org/2000/svg">
<g clip-path="url(#clip0_362_1115)">
<path d="M48.5714 44.9286C51.2429 44.9286 53.4043 42.7429 53.4043 40.0714L53.4286 13.3571C53.4286 10.6857 51.2429 8.5 48.5714 8.5H9.71429C7.04286 8.5 4.85714 10.6857 4.85714 13.3571V40.0714C4.85714 42.7429 7.04286 44.9286 9.71429 44.9286H0C0 47.6 2.18571 49.7857 4.85714 49.7857H53.4286C56.1 49.7857 58.2857 47.6 58.2857 44.9286H48.5714ZM9.71429 13.3571H48.5714V40.0714H9.71429V13.3571ZM29.1429 47.3571C27.8071 47.3571 26.7143 46.2643 26.7143 44.9286C26.7143 43.5929 27.8071 42.5 29.1429 42.5C30.4786 42.5 31.5714 43.5929 31.5714 44.9286C31.5714 46.2643 30.4786 47.3571 29.1429 47.3571Z" fill="black"/>
</g>
<defs>
<clipPath id="clip0_362_1115">
<rect width="58.2857" height="58.2857" fill="white"/>
</clipPath>
</defs>
</svg>
