<svg width="38" height="38" viewBox="0 0 38 38" fill="none" xmlns="http://www.w3.org/2000/svg">
<circle cx="19" cy="19" r="19" fill="#F4DD01"/>
<path d="M25.09 12.3691C24.6474 11.8764 23.9299 11.8764 23.4874 12.3691L19 17.3655L14.5126 12.3692C14.07 11.8764 13.3525 11.8764 12.91 12.3692C12.4674 12.8619 12.4674 13.6608 12.91 14.1536L17.3973 19.1499L12.91 24.1462C12.4674 24.639 12.4674 25.4379 12.91 25.9306C13.3526 26.4234 14.0701 26.4234 14.5126 25.9306L19 20.9343L23.4874 25.9307C23.9299 26.4234 24.6474 26.4234 25.09 25.9307C25.5326 25.4379 25.5325 24.639 25.09 24.1463L20.6026 19.1499L25.09 14.1535C25.5326 13.6608 25.5326 12.8619 25.09 12.3691Z" fill="black"/>
</svg>
